<svg width="1479" height="2046" viewBox="0 0 1479 2046" fill="none" xmlns="http://www.w3.org/2000/svg">
<rect width="419.1" height="2046" fill="#2B4060" fill-opacity="0.5"/>
<path d="M1059.3 310.199H1478.4V854.699H1059.3V310.199Z" fill="#2B4060" fill-opacity="0.5"/>
<path d="M957 966.9C1009.29 938.936 1059.3 854.7 1059.3 854.7H1478.4C1478.4 854.7 1142.47 903.463 1141.8 990C1141.12 1077.63 1478.4 1234.2 1478.4 1234.2H1059.3C1059.3 1234.2 1019.51 1111.41 957 1067.55C907.436 1032.78 811.8 1023 811.8 1023V990C811.8 990 905.246 994.579 957 966.9Z" fill="#2B4060" fill-opacity="0.5"/>
<path d="M1059.3 1234.2H1478.4V2046H1059.3V1234.2Z" fill="#2B4060" fill-opacity="0.5"/>
<rect x="419.1" y="990" width="392.7" height="33" fill="#2B4060" fill-opacity="0.5"/>
<line y1="1009.3" x2="1145.1" y2="1009.3" stroke="#242424" stroke-dasharray="10 10"/>
</svg>
